<mxfile host="app.diagrams.net" agent="Mozilla/5.0 (Windows NT 10.0; Win64; x64) AppleWebKit/537.36 (KHTML, like Gecko) Chrome/135.0.0.0 Safari/537.36" version="26.2.14">
  <diagram name="Страница — 1" id="fiB0RdUHgij8m-T2Mwii">
    <mxGraphModel dx="2253" dy="811" grid="1" gridSize="10" guides="1" tooltips="1" connect="1" arrows="1" fold="1" page="1" pageScale="1" pageWidth="827" pageHeight="1169" math="0" shadow="0">
      <root>
        <mxCell id="0" />
        <mxCell id="1" parent="0" />
        <mxCell id="SB0M5A4eIzUVAByA0Bjt-7" style="edgeStyle=orthogonalEdgeStyle;rounded=0;orthogonalLoop=1;jettySize=auto;html=1;" parent="1" source="SB0M5A4eIzUVAByA0Bjt-3" target="SB0M5A4eIzUVAByA0Bjt-6" edge="1">
          <mxGeometry relative="1" as="geometry" />
        </mxCell>
        <mxCell id="SB0M5A4eIzUVAByA0Bjt-3" value="" style="ellipse;whiteSpace=wrap;html=1;aspect=fixed;fillColor=#000000;" parent="1" vertex="1">
          <mxGeometry x="404" y="180" width="20" height="20" as="geometry" />
        </mxCell>
        <mxCell id="SB0M5A4eIzUVAByA0Bjt-9" style="edgeStyle=orthogonalEdgeStyle;rounded=0;orthogonalLoop=1;jettySize=auto;html=1;" parent="1" source="SB0M5A4eIzUVAByA0Bjt-6" target="SB0M5A4eIzUVAByA0Bjt-8" edge="1">
          <mxGeometry relative="1" as="geometry" />
        </mxCell>
        <mxCell id="SB0M5A4eIzUVAByA0Bjt-6" value="Войти в кафе" style="rounded=1;whiteSpace=wrap;html=1;" parent="1" vertex="1">
          <mxGeometry x="354" y="250" width="120" height="60" as="geometry" />
        </mxCell>
        <mxCell id="SB0M5A4eIzUVAByA0Bjt-11" value="" style="edgeStyle=orthogonalEdgeStyle;rounded=0;orthogonalLoop=1;jettySize=auto;html=1;" parent="1" source="SB0M5A4eIzUVAByA0Bjt-8" target="SB0M5A4eIzUVAByA0Bjt-10" edge="1">
          <mxGeometry relative="1" as="geometry" />
        </mxCell>
        <mxCell id="SB0M5A4eIzUVAByA0Bjt-8" value="Посмотреть позиции" style="rounded=1;whiteSpace=wrap;html=1;" parent="1" vertex="1">
          <mxGeometry x="354" y="370" width="120" height="60" as="geometry" />
        </mxCell>
        <mxCell id="SB0M5A4eIzUVAByA0Bjt-13" style="edgeStyle=orthogonalEdgeStyle;rounded=0;orthogonalLoop=1;jettySize=auto;html=1;entryX=0.5;entryY=0;entryDx=0;entryDy=0;" parent="1" source="SB0M5A4eIzUVAByA0Bjt-10" target="SB0M5A4eIzUVAByA0Bjt-12" edge="1">
          <mxGeometry relative="1" as="geometry" />
        </mxCell>
        <mxCell id="SB0M5A4eIzUVAByA0Bjt-10" value="Заказать пизию" style="whiteSpace=wrap;html=1;rounded=1;" parent="1" vertex="1">
          <mxGeometry x="354" y="490" width="120" height="60" as="geometry" />
        </mxCell>
        <mxCell id="SB0M5A4eIzUVAByA0Bjt-16" value="" style="edgeStyle=orthogonalEdgeStyle;rounded=0;orthogonalLoop=1;jettySize=auto;html=1;" parent="1" source="SB0M5A4eIzUVAByA0Bjt-12" target="SB0M5A4eIzUVAByA0Bjt-15" edge="1">
          <mxGeometry relative="1" as="geometry" />
        </mxCell>
        <mxCell id="SB0M5A4eIzUVAByA0Bjt-31" value="[Нет в наличии]" style="edgeLabel;html=1;align=center;verticalAlign=middle;resizable=0;points=[];" parent="SB0M5A4eIzUVAByA0Bjt-16" vertex="1" connectable="0">
          <mxGeometry x="0.2277" relative="1" as="geometry">
            <mxPoint x="-15" y="-20" as="offset" />
          </mxGeometry>
        </mxCell>
        <mxCell id="SB0M5A4eIzUVAByA0Bjt-18" value="" style="edgeStyle=orthogonalEdgeStyle;rounded=0;orthogonalLoop=1;jettySize=auto;html=1;" parent="1" source="SB0M5A4eIzUVAByA0Bjt-12" target="SB0M5A4eIzUVAByA0Bjt-17" edge="1">
          <mxGeometry relative="1" as="geometry" />
        </mxCell>
        <mxCell id="SB0M5A4eIzUVAByA0Bjt-32" value="[есть в наличии]" style="edgeLabel;html=1;align=center;verticalAlign=middle;resizable=0;points=[];" parent="SB0M5A4eIzUVAByA0Bjt-18" vertex="1" connectable="0">
          <mxGeometry x="-0.0314" relative="1" as="geometry">
            <mxPoint y="-30" as="offset" />
          </mxGeometry>
        </mxCell>
        <mxCell id="SB0M5A4eIzUVAByA0Bjt-12" value="" style="rhombus;whiteSpace=wrap;html=1;" parent="1" vertex="1">
          <mxGeometry x="389.5" y="590" width="49" height="60" as="geometry" />
        </mxCell>
        <mxCell id="SB0M5A4eIzUVAByA0Bjt-19" style="edgeStyle=orthogonalEdgeStyle;rounded=0;orthogonalLoop=1;jettySize=auto;html=1;entryX=1;entryY=0.5;entryDx=0;entryDy=0;exitX=0.5;exitY=0;exitDx=0;exitDy=0;" parent="1" source="SB0M5A4eIzUVAByA0Bjt-15" target="SB0M5A4eIzUVAByA0Bjt-10" edge="1">
          <mxGeometry relative="1" as="geometry">
            <mxPoint x="626" y="580" as="sourcePoint" />
            <mxPoint x="570" y="480" as="targetPoint" />
          </mxGeometry>
        </mxCell>
        <mxCell id="SB0M5A4eIzUVAByA0Bjt-29" value="[возврат к заказу]" style="edgeLabel;html=1;align=center;verticalAlign=middle;resizable=0;points=[];" parent="SB0M5A4eIzUVAByA0Bjt-19" vertex="1" connectable="0">
          <mxGeometry x="-0.5118" y="1" relative="1" as="geometry">
            <mxPoint as="offset" />
          </mxGeometry>
        </mxCell>
        <mxCell id="SB0M5A4eIzUVAByA0Bjt-15" value="Бариста предлогает выбрать другую позицию" style="rounded=1;whiteSpace=wrap;html=1;" parent="1" vertex="1">
          <mxGeometry x="580" y="590" width="120" height="60" as="geometry" />
        </mxCell>
        <mxCell id="SB0M5A4eIzUVAByA0Bjt-23" style="edgeStyle=orthogonalEdgeStyle;rounded=0;orthogonalLoop=1;jettySize=auto;html=1;entryX=0.5;entryY=0;entryDx=0;entryDy=0;" parent="1" source="SB0M5A4eIzUVAByA0Bjt-17" target="vxbZSUvEstNVq1XH5rei-2" edge="1">
          <mxGeometry relative="1" as="geometry" />
        </mxCell>
        <mxCell id="SB0M5A4eIzUVAByA0Bjt-17" value="выбор оплаты" style="rounded=1;whiteSpace=wrap;html=1;" parent="1" vertex="1">
          <mxGeometry x="190" y="590" width="120" height="60" as="geometry" />
        </mxCell>
        <mxCell id="SB0M5A4eIzUVAByA0Bjt-27" style="edgeStyle=orthogonalEdgeStyle;rounded=0;orthogonalLoop=1;jettySize=auto;html=1;" parent="1" source="SB0M5A4eIzUVAByA0Bjt-22" target="SB0M5A4eIzUVAByA0Bjt-26" edge="1">
          <mxGeometry relative="1" as="geometry" />
        </mxCell>
        <mxCell id="SB0M5A4eIzUVAByA0Bjt-28" style="edgeStyle=orthogonalEdgeStyle;rounded=0;orthogonalLoop=1;jettySize=auto;html=1;" parent="1" source="SB0M5A4eIzUVAByA0Bjt-22" target="SB0M5A4eIzUVAByA0Bjt-24" edge="1">
          <mxGeometry relative="1" as="geometry" />
        </mxCell>
        <mxCell id="SB0M5A4eIzUVAByA0Bjt-33" value="[Выдача ошибки]" style="edgeLabel;html=1;align=center;verticalAlign=middle;resizable=0;points=[];" parent="SB0M5A4eIzUVAByA0Bjt-28" vertex="1" connectable="0">
          <mxGeometry x="0.2061" y="2" relative="1" as="geometry">
            <mxPoint x="12" y="-32" as="offset" />
          </mxGeometry>
        </mxCell>
        <mxCell id="SB0M5A4eIzUVAByA0Bjt-22" value="" style="rhombus;whiteSpace=wrap;html=1;" parent="1" vertex="1">
          <mxGeometry x="225.5" y="790" width="49" height="60" as="geometry" />
        </mxCell>
        <mxCell id="SB0M5A4eIzUVAByA0Bjt-25" style="edgeStyle=orthogonalEdgeStyle;rounded=0;orthogonalLoop=1;jettySize=auto;html=1;" parent="1" edge="1" target="SB0M5A4eIzUVAByA0Bjt-17">
          <mxGeometry relative="1" as="geometry">
            <mxPoint x="0.4999999999997726" y="730" as="sourcePoint" />
            <mxPoint x="350" y="280" as="targetPoint" />
            <Array as="points">
              <mxPoint x="1" y="620" />
            </Array>
          </mxGeometry>
        </mxCell>
        <mxCell id="SB0M5A4eIzUVAByA0Bjt-24" value="Ошибка: Отображение на терменале" style="whiteSpace=wrap;html=1;rounded=1;" parent="1" vertex="1">
          <mxGeometry x="-40" y="700" width="120" height="60" as="geometry" />
        </mxCell>
        <mxCell id="shtsScbDASWpN3kZFJ-8-2" style="edgeStyle=orthogonalEdgeStyle;rounded=0;orthogonalLoop=1;jettySize=auto;html=1;entryX=0.5;entryY=0;entryDx=0;entryDy=0;" parent="1" source="SB0M5A4eIzUVAByA0Bjt-26" target="shtsScbDASWpN3kZFJ-8-1" edge="1">
          <mxGeometry relative="1" as="geometry" />
        </mxCell>
        <mxCell id="SB0M5A4eIzUVAByA0Bjt-26" value="Получение чека и товара" style="whiteSpace=wrap;html=1;rounded=1;" parent="1" vertex="1">
          <mxGeometry x="190" y="900" width="120" height="60" as="geometry" />
        </mxCell>
        <mxCell id="SB0M5A4eIzUVAByA0Bjt-30" value="[возврат к выбору оплаты]" style="edgeLabel;html=1;align=center;verticalAlign=middle;resizable=0;points=[];" parent="1" vertex="1" connectable="0">
          <mxGeometry x="80" y="590" as="geometry">
            <mxPoint x="-10" y="4" as="offset" />
          </mxGeometry>
        </mxCell>
        <mxCell id="SB0M5A4eIzUVAByA0Bjt-34" value="&lt;span style=&quot;color: rgb(0, 0, 0); font-family: Helvetica; font-size: 11px; font-style: normal; font-variant-ligatures: normal; font-variant-caps: normal; font-weight: 400; letter-spacing: normal; orphans: 2; text-align: center; text-indent: 0px; text-transform: none; widows: 2; word-spacing: 0px; -webkit-text-stroke-width: 0px; white-space: nowrap; background-color: rgb(255, 255, 255); text-decoration-thickness: initial; text-decoration-style: initial; text-decoration-color: initial; float: none; display: inline !important;&quot;&gt;[Печать чека&lt;/span&gt;&lt;span style=&quot;color: rgb(0, 0, 0); font-family: Helvetica; font-size: 11px; font-style: normal; font-variant-ligatures: normal; font-variant-caps: normal; font-weight: 400; letter-spacing: normal; orphans: 2; text-align: center; text-indent: 0px; text-transform: none; widows: 2; word-spacing: 0px; -webkit-text-stroke-width: 0px; white-space: nowrap; background-color: rgb(255, 255, 255); text-decoration-thickness: initial; text-decoration-style: initial; text-decoration-color: initial; float: none; display: inline !important;&quot;&gt;]&lt;/span&gt;" style="text;whiteSpace=wrap;html=1;" parent="1" vertex="1">
          <mxGeometry x="204" y="850" width="150" height="70" as="geometry" />
        </mxCell>
        <mxCell id="shtsScbDASWpN3kZFJ-8-1" value="" style="ellipse;html=1;shape=endState;fillColor=#000000;strokeColor=#ff0000;" parent="1" vertex="1">
          <mxGeometry x="235" y="1010" width="30" height="30" as="geometry" />
        </mxCell>
        <mxCell id="vxbZSUvEstNVq1XH5rei-3" style="edgeStyle=orthogonalEdgeStyle;rounded=0;orthogonalLoop=1;jettySize=auto;html=1;entryX=0.5;entryY=0;entryDx=0;entryDy=0;" edge="1" parent="1" source="vxbZSUvEstNVq1XH5rei-2" target="SB0M5A4eIzUVAByA0Bjt-22">
          <mxGeometry relative="1" as="geometry" />
        </mxCell>
        <mxCell id="vxbZSUvEstNVq1XH5rei-2" value="Проведение оплаты" style="rounded=1;whiteSpace=wrap;html=1;" vertex="1" parent="1">
          <mxGeometry x="190" y="680" width="120" height="60" as="geometry" />
        </mxCell>
      </root>
    </mxGraphModel>
  </diagram>
</mxfile>
